<?xml version="1.0" standalone="no"?>
<!DOCTYPE svg PUBLIC "-//W3C//DTD SVG 20010904//EN"
 "http://www.w3.org/TR/2001/REC-SVG-20010904/DTD/svg10.dtd">
<svg version="1.0" xmlns="http://www.w3.org/2000/svg"
 width="1785.000000pt" height="456.000000pt" viewBox="0 0 1785.000000 456.000000"
 preserveAspectRatio="xMidYMid meet">
<metadata>
Created by potrace 1.15, written by Peter Selinger 2001-2017
</metadata>
<g transform="translate(0.000000,456.000000) scale(0.100000,-0.100000)"
fill="#3b3fb6" stroke="none">
<path d="M2035 4548 c-486 -49 -979 -279 -1334 -622 -394 -382 -632 -864 -690
-1398 -14 -125 -14 -371 0 -496 57 -531 295 -1014 683 -1389 344 -334 766
-543 1246 -619 90 -15 170 -19 370 -18 341 0 566 28 875 109 138 36 365 113
365 124 0 3 27 129 60 280 33 151 58 277 55 279 -2 2 -31 -12 -64 -32 -336
-205 -887 -330 -1379 -313 -225 7 -400 41 -587 113 -529 205 -932 630 -1103
1165 -66 207 -76 279 -76 549 0 217 2 257 22 349 85 386 253 694 523 956 184
178 360 296 578 386 218 90 398 128 642 136 520 18 972 -135 1278 -432 198
-192 314 -403 373 -677 28 -134 31 -424 5 -563 -36 -199 -106 -380 -197 -516
-94 -139 -261 -288 -435 -388 -190 -109 -481 -169 -680 -141 -260 37 -391 219
-356 494 9 68 189 963 226 1124 l5 22 450 0 c248 0 450 2 450 5 0 3 20 92 45
197 25 106 45 196 45 200 0 4 -500 7 -1112 6 l-1112 -3 -38 -185 c-20 -102
-37 -193 -38 -202 0 -17 27 -18 426 -18 l426 0 -6 -25 c-3 -13 -52 -248 -108
-522 l-101 -498 -1 -195 -1 -195 33 -95 c18 -52 45 -115 59 -140 75 -130 211
-258 344 -325 248 -125 596 -132 982 -20 381 110 784 449 967 814 246 492 262
1136 40 1641 -116 264 -332 525 -580 703 -110 78 -375 213 -505 256 -331 110
-724 154 -1070 119z"/>
<path d="M11221 3388 c-57 -282 -461 -2369 -461 -2381 0 -15 21 -17 213 -17
l213 0 158 818 c87 449 162 822 165 829 3 7 129 -277 280 -630 150 -353 276
-645 280 -649 5 -6 908 1037 1057 1220 18 22 -1 -84 -132 -749 -84 -426 -155
-789 -159 -806 l-6 -33 216 0 c118 0 215 3 215 8 0 4 106 549 235 1212 129
662 235 1210 235 1217 0 10 -44 13 -197 12 l-198 0 -574 -681 -574 -680 -286
681 -286 681 -192 0 -192 0 -10 -52z"/>
<path d="M17427 3333 c-2 -5 -37 -179 -78 -388 -40 -209 -74 -381 -75 -383 -1
-1 -27 22 -58 52 -66 64 -182 126 -301 158 -68 18 -106 22 -260 22 -153 0
-192 -4 -257 -22 -274 -75 -530 -287 -658 -542 -76 -152 -103 -274 -103 -455
1 -254 74 -438 234 -591 186 -177 424 -250 723 -224 199 17 346 75 456 177
l57 52 12 -38 c16 -56 90 -134 153 -162 66 -29 239 -39 303 -17 l39 13 33 160
c17 88 32 167 33 175 0 12 -11 14 -56 12 -93 -6 -134 25 -134 100 0 18 81 449
180 958 99 509 180 931 180 938 0 9 -53 12 -209 12 -116 0 -212 -3 -214 -7z
m-609 -938 c220 -52 362 -221 362 -433 0 -264 -175 -507 -425 -589 -156 -51
-356 -32 -475 45 -214 139 -273 415 -142 667 74 141 232 270 382 309 72 19
219 19 298 1z"/>
<path d="M6887 3238 c-3 -13 -25 -125 -49 -250 l-43 -227 -110 -3 -109 -3 -38
-185 c-20 -102 -37 -188 -38 -192 0 -5 50 -8 110 -8 109 0 110 0 105 -22 -28
-118 -167 -870 -172 -928 -14 -179 73 -337 228 -414 38 -19 94 -40 126 -46 58
-13 304 -9 334 4 11 5 26 58 52 184 20 98 37 183 37 188 0 6 -27 7 -72 3 -164
-16 -258 41 -258 156 0 22 36 227 80 455 44 228 80 415 80 417 0 2 89 3 198 3
l199 0 31 163 c17 89 34 177 38 195 l7 32 -197 0 c-124 0 -196 4 -196 10 0 6
20 114 45 240 25 126 45 234 45 240 0 6 -77 10 -214 10 -214 0 -214 0 -219
-22z"/>
<path d="M10015 2382 c-157 -807 -170 -886 -170 -987 0 -129 16 -185 75 -267
45 -64 120 -119 205 -150 52 -20 79 -23 212 -23 102 0 156 4 164 12 9 9 79
333 79 368 0 6 -39 10 -98 10 -86 0 -101 3 -131 24 -47 34 -75 100 -66 160 4
25 81 424 171 885 90 462 164 841 164 843 0 1 -98 3 -217 3 l-218 0 -170 -878z"/>
<path d="M5340 2809 c-226 -22 -440 -123 -614 -289 -145 -138 -237 -283 -292
-465 -26 -83 -28 -103 -28 -265 -1 -190 8 -240 65 -367 95 -215 304 -386 554
-455 69 -19 106 -22 275 -22 236 -1 315 15 485 98 270 133 475 376 557 662 20
69 23 102 23 249 -1 198 -11 250 -81 390 -112 228 -336 396 -595 448 -99 20
-245 27 -349 16z m274 -418 c205 -72 326 -241 326 -458 0 -165 -52 -285 -180
-414 -65 -66 -102 -95 -160 -123 -100 -49 -203 -70 -302 -62 -286 23 -467 209
-468 480 0 283 218 545 500 600 58 11 226 -3 284 -23z"/>
<path d="M14545 2799 c-553 -49 -970 -578 -907 -1151 15 -128 52 -248 103
-334 109 -181 310 -315 534 -357 362 -68 698 17 940 236 l50 44 -56 64 c-31
35 -85 95 -120 133 l-64 69 -53 -46 c-115 -97 -255 -147 -417 -147 -100 0
-215 24 -285 60 -125 64 -210 202 -210 342 l0 48 687 2 687 3 14 45 c20 65 27
242 13 329 -52 335 -286 586 -601 646 -101 19 -207 24 -315 14z m258 -388
c143 -50 247 -179 247 -308 l0 -33 -470 0 c-258 0 -470 2 -470 5 0 16 54 108
89 152 45 58 143 132 214 162 122 53 279 61 390 22z"/>
<path d="M8413 2786 c-387 -74 -721 -399 -810 -789 -25 -111 -22 -348 6 -452
76 -284 280 -484 571 -561 142 -38 369 -37 529 2 94 23 218 86 285 145 31 28
58 50 59 48 2 -2 11 -23 22 -47 25 -58 78 -110 144 -141 45 -20 75 -26 156
-29 120 -5 182 9 190 41 8 35 65 319 65 326 0 3 -23 4 -50 3 -101 -7 -140 20
-140 96 0 26 56 334 125 686 69 351 125 640 125 642 0 2 -96 4 -214 4 l-213 0
-17 -87 c-26 -134 -24 -130 -52 -91 -58 78 -185 151 -329 189 -103 27 -345 35
-452 15z m355 -391 c139 -33 262 -125 315 -237 65 -138 56 -315 -24 -477 -114
-231 -378 -371 -627 -332 -198 31 -334 137 -391 309 -31 90 -29 226 4 329 60
188 233 356 421 408 66 18 225 18 302 0z"/>
</g>
</svg>
